<mxfile host="app.diagrams.net" modified="2023-03-23T15:37:09.928Z" agent="5.0 (Windows NT 10.0; Win64; x64) AppleWebKit/537.36 (KHTML, like Gecko) Chrome/111.0.0.0 Safari/537.36" etag="-_1XcgA4Qogz1Wx3E4ru" version="21.0.10" type="github">
  <diagram name="페이지-1" id="IaQ0nFC6grKGDQCxVfy8">
    <mxGraphModel dx="1154" dy="527" grid="1" gridSize="10" guides="1" tooltips="1" connect="1" arrows="1" fold="1" page="1" pageScale="1" pageWidth="827" pageHeight="1169" math="0" shadow="0">
      <root>
        <mxCell id="0" />
        <mxCell id="1" parent="0" />
        <mxCell id="eg75PlXAf295uik4Qz2r-2" style="edgeStyle=orthogonalEdgeStyle;rounded=0;orthogonalLoop=1;jettySize=auto;html=1;" parent="1" source="eg75PlXAf295uik4Qz2r-3" target="eg75PlXAf295uik4Qz2r-5" edge="1">
          <mxGeometry relative="1" as="geometry">
            <mxPoint x="313.9999999999999" y="70" as="targetPoint" />
          </mxGeometry>
        </mxCell>
        <mxCell id="eg75PlXAf295uik4Qz2r-3" value="클라이언트" style="rounded=0;whiteSpace=wrap;html=1;" parent="1" vertex="1">
          <mxGeometry x="34" y="40" width="120" height="60" as="geometry" />
        </mxCell>
        <mxCell id="eg75PlXAf295uik4Qz2r-4" style="edgeStyle=orthogonalEdgeStyle;rounded=0;orthogonalLoop=1;jettySize=auto;html=1;" parent="1" source="eg75PlXAf295uik4Qz2r-5" target="eg75PlXAf295uik4Qz2r-6" edge="1">
          <mxGeometry relative="1" as="geometry">
            <mxPoint x="514" y="70" as="targetPoint" />
          </mxGeometry>
        </mxCell>
        <mxCell id="eg75PlXAf295uik4Qz2r-5" value="회원 서비스&lt;br&gt;&lt;font style=&quot;font-size: 8px;&quot;&gt;1. 회원가입&lt;br style=&quot;font-size: 8px;&quot;&gt;2. 회원 조회&lt;br style=&quot;font-size: 8px;&quot;&gt;3. 회원 탈퇴&lt;/font&gt;" style="rounded=0;whiteSpace=wrap;html=1;" parent="1" vertex="1">
          <mxGeometry x="273.9999999999999" y="40" width="120" height="60" as="geometry" />
        </mxCell>
        <mxCell id="pke9fNTr7LH3xoYUGxx9-25" style="edgeStyle=orthogonalEdgeStyle;rounded=0;orthogonalLoop=1;jettySize=auto;html=1;entryX=0;entryY=0.5;entryDx=0;entryDy=0;" parent="1" source="eg75PlXAf295uik4Qz2r-6" target="eg75PlXAf295uik4Qz2r-10" edge="1">
          <mxGeometry relative="1" as="geometry" />
        </mxCell>
        <mxCell id="pke9fNTr7LH3xoYUGxx9-27" style="edgeStyle=orthogonalEdgeStyle;rounded=0;orthogonalLoop=1;jettySize=auto;html=1;entryX=0;entryY=0.5;entryDx=0;entryDy=0;" parent="1" source="eg75PlXAf295uik4Qz2r-6" target="eg75PlXAf295uik4Qz2r-8" edge="1">
          <mxGeometry relative="1" as="geometry" />
        </mxCell>
        <mxCell id="eg75PlXAf295uik4Qz2r-6" value="회원 저장소" style="rounded=0;whiteSpace=wrap;html=1;" parent="1" vertex="1">
          <mxGeometry x="440" y="50" width="90" height="40" as="geometry" />
        </mxCell>
        <mxCell id="eg75PlXAf295uik4Qz2r-8" value="MariaDB&lt;br&gt;회원 저장소" style="rounded=0;whiteSpace=wrap;html=1;" parent="1" vertex="1">
          <mxGeometry x="570" y="90" width="90" height="40" as="geometry" />
        </mxCell>
        <mxCell id="eg75PlXAf295uik4Qz2r-10" value="메모리&lt;br&gt;회원 저장소" style="rounded=0;whiteSpace=wrap;html=1;" parent="1" vertex="1">
          <mxGeometry x="570" y="10" width="80" height="40" as="geometry" />
        </mxCell>
        <mxCell id="pke9fNTr7LH3xoYUGxx9-28" style="edgeStyle=orthogonalEdgeStyle;rounded=0;orthogonalLoop=1;jettySize=auto;html=1;" parent="1" source="pke9fNTr7LH3xoYUGxx9-29" target="pke9fNTr7LH3xoYUGxx9-31" edge="1">
          <mxGeometry relative="1" as="geometry">
            <mxPoint x="313.9999999999999" y="220" as="targetPoint" />
          </mxGeometry>
        </mxCell>
        <mxCell id="pke9fNTr7LH3xoYUGxx9-29" value="클라이언트" style="rounded=0;whiteSpace=wrap;html=1;" parent="1" vertex="1">
          <mxGeometry x="34" y="190" width="120" height="60" as="geometry" />
        </mxCell>
        <mxCell id="pke9fNTr7LH3xoYUGxx9-30" style="edgeStyle=orthogonalEdgeStyle;rounded=0;orthogonalLoop=1;jettySize=auto;html=1;" parent="1" source="pke9fNTr7LH3xoYUGxx9-31" target="pke9fNTr7LH3xoYUGxx9-34" edge="1">
          <mxGeometry relative="1" as="geometry">
            <mxPoint x="514" y="220" as="targetPoint" />
          </mxGeometry>
        </mxCell>
        <mxCell id="pke9fNTr7LH3xoYUGxx9-31" value="로그인 서비스&lt;br&gt;1. 로그인&lt;br&gt;2. pw 변경" style="rounded=0;whiteSpace=wrap;html=1;" parent="1" vertex="1">
          <mxGeometry x="273.9999999999999" y="190" width="120" height="60" as="geometry" />
        </mxCell>
        <mxCell id="pke9fNTr7LH3xoYUGxx9-32" style="edgeStyle=orthogonalEdgeStyle;rounded=0;orthogonalLoop=1;jettySize=auto;html=1;entryX=0;entryY=0.5;entryDx=0;entryDy=0;" parent="1" source="pke9fNTr7LH3xoYUGxx9-34" target="pke9fNTr7LH3xoYUGxx9-36" edge="1">
          <mxGeometry relative="1" as="geometry" />
        </mxCell>
        <mxCell id="pke9fNTr7LH3xoYUGxx9-33" style="edgeStyle=orthogonalEdgeStyle;rounded=0;orthogonalLoop=1;jettySize=auto;html=1;entryX=0;entryY=0.5;entryDx=0;entryDy=0;" parent="1" source="pke9fNTr7LH3xoYUGxx9-34" target="pke9fNTr7LH3xoYUGxx9-35" edge="1">
          <mxGeometry relative="1" as="geometry" />
        </mxCell>
        <mxCell id="pke9fNTr7LH3xoYUGxx9-34" value="로그인 정보&lt;br&gt;&amp;nbsp;저장소" style="rounded=0;whiteSpace=wrap;html=1;" parent="1" vertex="1">
          <mxGeometry x="440" y="200" width="90" height="40" as="geometry" />
        </mxCell>
        <mxCell id="pke9fNTr7LH3xoYUGxx9-35" value="MariaDB&lt;br&gt;회원 저장소" style="rounded=0;whiteSpace=wrap;html=1;" parent="1" vertex="1">
          <mxGeometry x="570" y="240" width="90" height="40" as="geometry" />
        </mxCell>
        <mxCell id="pke9fNTr7LH3xoYUGxx9-36" value="메모리&lt;br&gt;회원 저장소" style="rounded=0;whiteSpace=wrap;html=1;" parent="1" vertex="1">
          <mxGeometry x="570" y="160" width="80" height="40" as="geometry" />
        </mxCell>
        <mxCell id="pke9fNTr7LH3xoYUGxx9-37" style="edgeStyle=orthogonalEdgeStyle;rounded=0;orthogonalLoop=1;jettySize=auto;html=1;" parent="1" source="pke9fNTr7LH3xoYUGxx9-38" target="pke9fNTr7LH3xoYUGxx9-40" edge="1">
          <mxGeometry relative="1" as="geometry">
            <mxPoint x="319.9999999999999" y="450" as="targetPoint" />
          </mxGeometry>
        </mxCell>
        <mxCell id="pke9fNTr7LH3xoYUGxx9-38" value="클라이언트" style="rounded=0;whiteSpace=wrap;html=1;" parent="1" vertex="1">
          <mxGeometry x="40" y="420" width="120" height="60" as="geometry" />
        </mxCell>
        <mxCell id="pke9fNTr7LH3xoYUGxx9-47" value="" style="edgeStyle=orthogonalEdgeStyle;rounded=0;orthogonalLoop=1;jettySize=auto;html=1;" parent="1" source="pke9fNTr7LH3xoYUGxx9-40" target="pke9fNTr7LH3xoYUGxx9-46" edge="1">
          <mxGeometry relative="1" as="geometry">
            <Array as="points">
              <mxPoint x="450" y="450" />
            </Array>
          </mxGeometry>
        </mxCell>
        <mxCell id="pke9fNTr7LH3xoYUGxx9-50" style="edgeStyle=orthogonalEdgeStyle;rounded=0;orthogonalLoop=1;jettySize=auto;html=1;" parent="1" source="pke9fNTr7LH3xoYUGxx9-40" edge="1">
          <mxGeometry relative="1" as="geometry">
            <mxPoint x="450" y="400" as="targetPoint" />
            <Array as="points">
              <mxPoint x="450" y="450" />
            </Array>
          </mxGeometry>
        </mxCell>
        <mxCell id="pke9fNTr7LH3xoYUGxx9-40" value="대학 인증 서비스&lt;br&gt;1. 대학 인증&lt;br&gt;2. 인증 정보 저장" style="rounded=0;whiteSpace=wrap;html=1;" parent="1" vertex="1">
          <mxGeometry x="239.9999999999999" y="420" width="120" height="60" as="geometry" />
        </mxCell>
        <mxCell id="pke9fNTr7LH3xoYUGxx9-54" style="edgeStyle=orthogonalEdgeStyle;rounded=0;orthogonalLoop=1;jettySize=auto;html=1;entryX=0;entryY=0.5;entryDx=0;entryDy=0;" parent="1" source="pke9fNTr7LH3xoYUGxx9-46" target="pke9fNTr7LH3xoYUGxx9-56" edge="1">
          <mxGeometry relative="1" as="geometry">
            <mxPoint x="560" y="510" as="targetPoint" />
          </mxGeometry>
        </mxCell>
        <mxCell id="pke9fNTr7LH3xoYUGxx9-65" style="edgeStyle=orthogonalEdgeStyle;rounded=0;orthogonalLoop=1;jettySize=auto;html=1;entryX=0;entryY=0.5;entryDx=0;entryDy=0;" parent="1" source="pke9fNTr7LH3xoYUGxx9-46" target="pke9fNTr7LH3xoYUGxx9-64" edge="1">
          <mxGeometry relative="1" as="geometry" />
        </mxCell>
        <mxCell id="pke9fNTr7LH3xoYUGxx9-46" value="대학 인증 정책" style="rounded=0;whiteSpace=wrap;html=1;" parent="1" vertex="1">
          <mxGeometry x="410" y="490" width="85" height="40" as="geometry" />
        </mxCell>
        <mxCell id="pke9fNTr7LH3xoYUGxx9-51" value="회원 저장소" style="rounded=0;whiteSpace=wrap;html=1;" parent="1" vertex="1">
          <mxGeometry x="405" y="360" width="90" height="40" as="geometry" />
        </mxCell>
        <mxCell id="pke9fNTr7LH3xoYUGxx9-58" style="edgeStyle=orthogonalEdgeStyle;rounded=0;orthogonalLoop=1;jettySize=auto;html=1;entryX=0;entryY=0.5;entryDx=0;entryDy=0;" parent="1" source="pke9fNTr7LH3xoYUGxx9-56" target="pke9fNTr7LH3xoYUGxx9-57" edge="1">
          <mxGeometry relative="1" as="geometry" />
        </mxCell>
        <mxCell id="pke9fNTr7LH3xoYUGxx9-56" value="이메일 인증 &lt;br&gt;정책" style="rounded=0;whiteSpace=wrap;html=1;" parent="1" vertex="1">
          <mxGeometry x="535" y="460" width="85" height="40" as="geometry" />
        </mxCell>
        <mxCell id="pke9fNTr7LH3xoYUGxx9-71" style="edgeStyle=orthogonalEdgeStyle;rounded=0;orthogonalLoop=1;jettySize=auto;html=1;entryX=0;entryY=0.5;entryDx=0;entryDy=0;" parent="1" source="pke9fNTr7LH3xoYUGxx9-57" target="pke9fNTr7LH3xoYUGxx9-70" edge="1">
          <mxGeometry relative="1" as="geometry">
            <Array as="points">
              <mxPoint x="760" y="480" />
              <mxPoint x="760" y="450" />
            </Array>
          </mxGeometry>
        </mxCell>
        <mxCell id="pke9fNTr7LH3xoYUGxx9-57" value="대학 정보 &lt;br&gt;저장소" style="rounded=0;whiteSpace=wrap;html=1;" parent="1" vertex="1">
          <mxGeometry x="650" y="460" width="85" height="40" as="geometry" />
        </mxCell>
        <mxCell id="pke9fNTr7LH3xoYUGxx9-64" value="외부 api 정책" style="rounded=0;whiteSpace=wrap;html=1;" parent="1" vertex="1">
          <mxGeometry x="535" y="520" width="85" height="40" as="geometry" />
        </mxCell>
        <mxCell id="pke9fNTr7LH3xoYUGxx9-66" style="edgeStyle=orthogonalEdgeStyle;rounded=0;orthogonalLoop=1;jettySize=auto;html=1;entryX=0;entryY=0.5;entryDx=0;entryDy=0;" parent="1" target="pke9fNTr7LH3xoYUGxx9-69" edge="1">
          <mxGeometry relative="1" as="geometry">
            <mxPoint x="495" y="380" as="sourcePoint" />
          </mxGeometry>
        </mxCell>
        <mxCell id="pke9fNTr7LH3xoYUGxx9-67" style="edgeStyle=orthogonalEdgeStyle;rounded=0;orthogonalLoop=1;jettySize=auto;html=1;entryX=0;entryY=0.5;entryDx=0;entryDy=0;" parent="1" target="pke9fNTr7LH3xoYUGxx9-68" edge="1">
          <mxGeometry relative="1" as="geometry">
            <mxPoint x="495" y="380" as="sourcePoint" />
          </mxGeometry>
        </mxCell>
        <mxCell id="pke9fNTr7LH3xoYUGxx9-68" value="MariaDB&lt;br&gt;회원 저장소" style="rounded=0;whiteSpace=wrap;html=1;" parent="1" vertex="1">
          <mxGeometry x="535" y="400" width="90" height="40" as="geometry" />
        </mxCell>
        <mxCell id="pke9fNTr7LH3xoYUGxx9-69" value="메모리&lt;br&gt;회원 저장소" style="rounded=0;whiteSpace=wrap;html=1;" parent="1" vertex="1">
          <mxGeometry x="535" y="320" width="80" height="40" as="geometry" />
        </mxCell>
        <mxCell id="pke9fNTr7LH3xoYUGxx9-70" value="메모리 저장소" style="rounded=0;whiteSpace=wrap;html=1;" parent="1" vertex="1">
          <mxGeometry x="780" y="430" width="85" height="40" as="geometry" />
        </mxCell>
        <mxCell id="pke9fNTr7LH3xoYUGxx9-73" style="edgeStyle=orthogonalEdgeStyle;rounded=0;orthogonalLoop=1;jettySize=auto;html=1;" parent="1" source="pke9fNTr7LH3xoYUGxx9-74" target="pke9fNTr7LH3xoYUGxx9-77" edge="1">
          <mxGeometry relative="1" as="geometry">
            <mxPoint x="319.9999999999999" y="715" as="targetPoint" />
          </mxGeometry>
        </mxCell>
        <mxCell id="pke9fNTr7LH3xoYUGxx9-74" value="클라이언트" style="rounded=0;whiteSpace=wrap;html=1;" parent="1" vertex="1">
          <mxGeometry x="40" y="685" width="120" height="60" as="geometry" />
        </mxCell>
        <mxCell id="pke9fNTr7LH3xoYUGxx9-75" value="" style="edgeStyle=orthogonalEdgeStyle;rounded=0;orthogonalLoop=1;jettySize=auto;html=1;" parent="1" source="pke9fNTr7LH3xoYUGxx9-77" target="pke9fNTr7LH3xoYUGxx9-80" edge="1">
          <mxGeometry relative="1" as="geometry">
            <Array as="points">
              <mxPoint x="450" y="715" />
            </Array>
          </mxGeometry>
        </mxCell>
        <mxCell id="pke9fNTr7LH3xoYUGxx9-76" style="edgeStyle=orthogonalEdgeStyle;rounded=0;orthogonalLoop=1;jettySize=auto;html=1;" parent="1" source="pke9fNTr7LH3xoYUGxx9-77" edge="1">
          <mxGeometry relative="1" as="geometry">
            <mxPoint x="450" y="665" as="targetPoint" />
            <Array as="points">
              <mxPoint x="450" y="715" />
            </Array>
          </mxGeometry>
        </mxCell>
        <mxCell id="pke9fNTr7LH3xoYUGxx9-77" value="본인 인증 서비스&lt;br&gt;1. 본인 인증&lt;br&gt;2. 인증 정보 저장" style="rounded=0;whiteSpace=wrap;html=1;" parent="1" vertex="1">
          <mxGeometry x="239.9999999999999" y="685" width="120" height="60" as="geometry" />
        </mxCell>
        <mxCell id="pke9fNTr7LH3xoYUGxx9-78" style="edgeStyle=orthogonalEdgeStyle;rounded=0;orthogonalLoop=1;jettySize=auto;html=1;entryX=0;entryY=0.5;entryDx=0;entryDy=0;" parent="1" source="pke9fNTr7LH3xoYUGxx9-80" target="pke9fNTr7LH3xoYUGxx9-83" edge="1">
          <mxGeometry relative="1" as="geometry">
            <mxPoint x="560" y="775" as="targetPoint" />
          </mxGeometry>
        </mxCell>
        <mxCell id="pke9fNTr7LH3xoYUGxx9-80" value="문자&lt;br&gt;본인 인증 정책" style="rounded=0;whiteSpace=wrap;html=1;" parent="1" vertex="1">
          <mxGeometry x="410" y="760" width="85" height="40" as="geometry" />
        </mxCell>
        <mxCell id="pke9fNTr7LH3xoYUGxx9-81" value="회원 저장소" style="rounded=0;whiteSpace=wrap;html=1;" parent="1" vertex="1">
          <mxGeometry x="405" y="625" width="90" height="40" as="geometry" />
        </mxCell>
        <mxCell id="pke9fNTr7LH3xoYUGxx9-83" value="naver&lt;br&gt;SENS api" style="rounded=0;whiteSpace=wrap;html=1;" parent="1" vertex="1">
          <mxGeometry x="535" y="760" width="85" height="40" as="geometry" />
        </mxCell>
        <mxCell id="pke9fNTr7LH3xoYUGxx9-88" style="edgeStyle=orthogonalEdgeStyle;rounded=0;orthogonalLoop=1;jettySize=auto;html=1;entryX=0;entryY=0.5;entryDx=0;entryDy=0;" parent="1" target="pke9fNTr7LH3xoYUGxx9-91" edge="1">
          <mxGeometry relative="1" as="geometry">
            <mxPoint x="495" y="645" as="sourcePoint" />
          </mxGeometry>
        </mxCell>
        <mxCell id="pke9fNTr7LH3xoYUGxx9-89" style="edgeStyle=orthogonalEdgeStyle;rounded=0;orthogonalLoop=1;jettySize=auto;html=1;entryX=0;entryY=0.5;entryDx=0;entryDy=0;" parent="1" target="pke9fNTr7LH3xoYUGxx9-90" edge="1">
          <mxGeometry relative="1" as="geometry">
            <mxPoint x="495" y="645" as="sourcePoint" />
          </mxGeometry>
        </mxCell>
        <mxCell id="pke9fNTr7LH3xoYUGxx9-90" value="MariaDB&lt;br&gt;회원 저장소" style="rounded=0;whiteSpace=wrap;html=1;" parent="1" vertex="1">
          <mxGeometry x="535" y="665" width="90" height="40" as="geometry" />
        </mxCell>
        <mxCell id="pke9fNTr7LH3xoYUGxx9-91" value="메모리&lt;br&gt;회원 저장소" style="rounded=0;whiteSpace=wrap;html=1;" parent="1" vertex="1">
          <mxGeometry x="535" y="585" width="80" height="40" as="geometry" />
        </mxCell>
        <mxCell id="8y2OHgFhRxUhLRQ5Q3VP-16" style="edgeStyle=orthogonalEdgeStyle;rounded=0;orthogonalLoop=1;jettySize=auto;html=1;" edge="1" source="8y2OHgFhRxUhLRQ5Q3VP-17" target="8y2OHgFhRxUhLRQ5Q3VP-20" parent="1">
          <mxGeometry relative="1" as="geometry">
            <mxPoint x="319.9999999999999" y="1100" as="targetPoint" />
          </mxGeometry>
        </mxCell>
        <mxCell id="8y2OHgFhRxUhLRQ5Q3VP-17" value="클라이언트" style="rounded=0;whiteSpace=wrap;html=1;" vertex="1" parent="1">
          <mxGeometry x="40" y="1070" width="120" height="60" as="geometry" />
        </mxCell>
        <mxCell id="8y2OHgFhRxUhLRQ5Q3VP-126" style="edgeStyle=orthogonalEdgeStyle;rounded=0;orthogonalLoop=1;jettySize=auto;html=1;exitX=1;exitY=0.5;exitDx=0;exitDy=0;entryX=0;entryY=0.5;entryDx=0;entryDy=0;" edge="1" parent="1" source="8y2OHgFhRxUhLRQ5Q3VP-20" target="8y2OHgFhRxUhLRQ5Q3VP-125">
          <mxGeometry relative="1" as="geometry" />
        </mxCell>
        <mxCell id="8y2OHgFhRxUhLRQ5Q3VP-138" style="edgeStyle=orthogonalEdgeStyle;rounded=0;orthogonalLoop=1;jettySize=auto;html=1;exitX=1;exitY=0.5;exitDx=0;exitDy=0;entryX=0.5;entryY=1;entryDx=0;entryDy=0;" edge="1" parent="1" source="8y2OHgFhRxUhLRQ5Q3VP-20" target="8y2OHgFhRxUhLRQ5Q3VP-106">
          <mxGeometry relative="1" as="geometry">
            <Array as="points">
              <mxPoint x="450" y="1100" />
            </Array>
          </mxGeometry>
        </mxCell>
        <mxCell id="8y2OHgFhRxUhLRQ5Q3VP-140" style="edgeStyle=orthogonalEdgeStyle;rounded=0;orthogonalLoop=1;jettySize=auto;html=1;exitX=1;exitY=0.5;exitDx=0;exitDy=0;" edge="1" parent="1" source="8y2OHgFhRxUhLRQ5Q3VP-20" target="8y2OHgFhRxUhLRQ5Q3VP-80">
          <mxGeometry relative="1" as="geometry">
            <Array as="points">
              <mxPoint x="450" y="1100" />
            </Array>
          </mxGeometry>
        </mxCell>
        <mxCell id="8y2OHgFhRxUhLRQ5Q3VP-20" value="매칭 서비스&lt;br&gt;1. 회원 매칭&lt;br&gt;2. 리매칭" style="rounded=0;whiteSpace=wrap;html=1;" vertex="1" parent="1">
          <mxGeometry x="239.9999999999999" y="1070" width="120" height="60" as="geometry" />
        </mxCell>
        <mxCell id="8y2OHgFhRxUhLRQ5Q3VP-59" value="MariaDB&lt;br&gt;회원 저장소" style="rounded=0;whiteSpace=wrap;html=1;" vertex="1" parent="1">
          <mxGeometry x="780" y="510" width="85" height="40" as="geometry" />
        </mxCell>
        <mxCell id="8y2OHgFhRxUhLRQ5Q3VP-72" style="edgeStyle=orthogonalEdgeStyle;rounded=0;orthogonalLoop=1;jettySize=auto;html=1;entryX=-0.016;entryY=0.547;entryDx=0;entryDy=0;entryPerimeter=0;" edge="1" parent="1" target="8y2OHgFhRxUhLRQ5Q3VP-59">
          <mxGeometry relative="1" as="geometry">
            <mxPoint x="735" y="480" as="sourcePoint" />
            <mxPoint x="775" y="510" as="targetPoint" />
            <Array as="points">
              <mxPoint x="760" y="480" />
              <mxPoint x="760" y="532" />
              <mxPoint x="770" y="532" />
            </Array>
          </mxGeometry>
        </mxCell>
        <mxCell id="8y2OHgFhRxUhLRQ5Q3VP-79" style="edgeStyle=orthogonalEdgeStyle;rounded=0;orthogonalLoop=1;jettySize=auto;html=1;entryX=0;entryY=0.5;entryDx=0;entryDy=0;" edge="1" source="8y2OHgFhRxUhLRQ5Q3VP-80" target="8y2OHgFhRxUhLRQ5Q3VP-81" parent="1">
          <mxGeometry relative="1" as="geometry">
            <mxPoint x="560" y="1265" as="targetPoint" />
          </mxGeometry>
        </mxCell>
        <mxCell id="8y2OHgFhRxUhLRQ5Q3VP-102" style="edgeStyle=orthogonalEdgeStyle;rounded=0;orthogonalLoop=1;jettySize=auto;html=1;exitX=1;exitY=0.5;exitDx=0;exitDy=0;entryX=0;entryY=0.5;entryDx=0;entryDy=0;" edge="1" parent="1" source="8y2OHgFhRxUhLRQ5Q3VP-80" target="8y2OHgFhRxUhLRQ5Q3VP-90">
          <mxGeometry relative="1" as="geometry" />
        </mxCell>
        <mxCell id="8y2OHgFhRxUhLRQ5Q3VP-80" value="매칭 정책" style="rounded=0;whiteSpace=wrap;html=1;" vertex="1" parent="1">
          <mxGeometry x="410" y="1260" width="85" height="40" as="geometry" />
        </mxCell>
        <mxCell id="8y2OHgFhRxUhLRQ5Q3VP-81" value="정교한 매칭 &lt;br&gt;정책" style="rounded=0;whiteSpace=wrap;html=1;" vertex="1" parent="1">
          <mxGeometry x="535" y="1290" width="85" height="40" as="geometry" />
        </mxCell>
        <mxCell id="8y2OHgFhRxUhLRQ5Q3VP-109" style="edgeStyle=orthogonalEdgeStyle;rounded=0;orthogonalLoop=1;jettySize=auto;html=1;exitX=1;exitY=0.5;exitDx=0;exitDy=0;entryX=0;entryY=0.5;entryDx=0;entryDy=0;" edge="1" parent="1" source="8y2OHgFhRxUhLRQ5Q3VP-90">
          <mxGeometry relative="1" as="geometry">
            <mxPoint x="659.9999999999998" y="1240" as="targetPoint" />
          </mxGeometry>
        </mxCell>
        <mxCell id="8y2OHgFhRxUhLRQ5Q3VP-90" value="기본 매칭 정책" style="rounded=0;whiteSpace=wrap;html=1;" vertex="1" parent="1">
          <mxGeometry x="535" y="1220" width="85" height="40" as="geometry" />
        </mxCell>
        <mxCell id="8y2OHgFhRxUhLRQ5Q3VP-121" style="edgeStyle=orthogonalEdgeStyle;rounded=0;orthogonalLoop=1;jettySize=auto;html=1;exitX=1;exitY=0.5;exitDx=0;exitDy=0;entryX=0;entryY=0.5;entryDx=0;entryDy=0;" edge="1" parent="1" source="8y2OHgFhRxUhLRQ5Q3VP-106" target="8y2OHgFhRxUhLRQ5Q3VP-120">
          <mxGeometry relative="1" as="geometry" />
        </mxCell>
        <mxCell id="8y2OHgFhRxUhLRQ5Q3VP-122" style="edgeStyle=orthogonalEdgeStyle;rounded=0;orthogonalLoop=1;jettySize=auto;html=1;exitX=1;exitY=0.5;exitDx=0;exitDy=0;entryX=0;entryY=0.5;entryDx=0;entryDy=0;" edge="1" parent="1" source="8y2OHgFhRxUhLRQ5Q3VP-106" target="8y2OHgFhRxUhLRQ5Q3VP-119">
          <mxGeometry relative="1" as="geometry" />
        </mxCell>
        <mxCell id="8y2OHgFhRxUhLRQ5Q3VP-106" value="매칭 저장소" style="rounded=0;whiteSpace=wrap;html=1;" vertex="1" parent="1">
          <mxGeometry x="407.5" y="930" width="85" height="40" as="geometry" />
        </mxCell>
        <mxCell id="8y2OHgFhRxUhLRQ5Q3VP-112" value="메모리&lt;br&gt;회원 저장소" style="rounded=0;whiteSpace=wrap;html=1;" vertex="1" parent="1">
          <mxGeometry x="570" y="10" width="80" height="40" as="geometry" />
        </mxCell>
        <mxCell id="8y2OHgFhRxUhLRQ5Q3VP-113" style="edgeStyle=orthogonalEdgeStyle;rounded=0;orthogonalLoop=1;jettySize=auto;html=1;entryX=0;entryY=0.5;entryDx=0;entryDy=0;" edge="1" parent="1" source="8y2OHgFhRxUhLRQ5Q3VP-115" target="8y2OHgFhRxUhLRQ5Q3VP-117">
          <mxGeometry relative="1" as="geometry" />
        </mxCell>
        <mxCell id="8y2OHgFhRxUhLRQ5Q3VP-114" style="edgeStyle=orthogonalEdgeStyle;rounded=0;orthogonalLoop=1;jettySize=auto;html=1;entryX=0;entryY=0.5;entryDx=0;entryDy=0;" edge="1" parent="1" source="8y2OHgFhRxUhLRQ5Q3VP-115" target="8y2OHgFhRxUhLRQ5Q3VP-116">
          <mxGeometry relative="1" as="geometry" />
        </mxCell>
        <mxCell id="8y2OHgFhRxUhLRQ5Q3VP-115" value="회원 저장소" style="rounded=0;whiteSpace=wrap;html=1;" vertex="1" parent="1">
          <mxGeometry x="660" y="1220" width="90" height="40" as="geometry" />
        </mxCell>
        <mxCell id="8y2OHgFhRxUhLRQ5Q3VP-116" value="MariaDB&lt;br&gt;회원 저장소" style="rounded=0;whiteSpace=wrap;html=1;" vertex="1" parent="1">
          <mxGeometry x="790" y="1260" width="90" height="40" as="geometry" />
        </mxCell>
        <mxCell id="8y2OHgFhRxUhLRQ5Q3VP-117" value="메모리&lt;br&gt;회원 저장소" style="rounded=0;whiteSpace=wrap;html=1;" vertex="1" parent="1">
          <mxGeometry x="790" y="1180" width="80" height="40" as="geometry" />
        </mxCell>
        <mxCell id="8y2OHgFhRxUhLRQ5Q3VP-118" value="메모리&lt;br&gt;회원 저장소" style="rounded=0;whiteSpace=wrap;html=1;" vertex="1" parent="1">
          <mxGeometry x="790" y="1180" width="80" height="40" as="geometry" />
        </mxCell>
        <mxCell id="8y2OHgFhRxUhLRQ5Q3VP-119" value="MariaDB&lt;br&gt;매칭 저장소" style="rounded=0;whiteSpace=wrap;html=1;" vertex="1" parent="1">
          <mxGeometry x="540" y="970" width="90" height="40" as="geometry" />
        </mxCell>
        <mxCell id="8y2OHgFhRxUhLRQ5Q3VP-120" value="메모리&lt;br&gt;매칭 저장소" style="rounded=0;whiteSpace=wrap;html=1;" vertex="1" parent="1">
          <mxGeometry x="540" y="890" width="80" height="40" as="geometry" />
        </mxCell>
        <mxCell id="8y2OHgFhRxUhLRQ5Q3VP-135" style="edgeStyle=orthogonalEdgeStyle;rounded=0;orthogonalLoop=1;jettySize=auto;html=1;exitX=1;exitY=0.5;exitDx=0;exitDy=0;entryX=0;entryY=0.5;entryDx=0;entryDy=0;" edge="1" parent="1" source="8y2OHgFhRxUhLRQ5Q3VP-125" target="8y2OHgFhRxUhLRQ5Q3VP-133">
          <mxGeometry relative="1" as="geometry" />
        </mxCell>
        <mxCell id="8y2OHgFhRxUhLRQ5Q3VP-136" style="edgeStyle=orthogonalEdgeStyle;rounded=0;orthogonalLoop=1;jettySize=auto;html=1;exitX=1;exitY=0.5;exitDx=0;exitDy=0;entryX=0;entryY=0.5;entryDx=0;entryDy=0;" edge="1" parent="1" source="8y2OHgFhRxUhLRQ5Q3VP-125" target="8y2OHgFhRxUhLRQ5Q3VP-134">
          <mxGeometry relative="1" as="geometry" />
        </mxCell>
        <mxCell id="8y2OHgFhRxUhLRQ5Q3VP-125" value="회원&lt;br&gt;회원 저장소" style="rounded=0;whiteSpace=wrap;html=1;" vertex="1" parent="1">
          <mxGeometry x="490" y="1080" width="80" height="40" as="geometry" />
        </mxCell>
        <mxCell id="8y2OHgFhRxUhLRQ5Q3VP-133" value="메모리&lt;br&gt;회원 저장소" style="rounded=0;whiteSpace=wrap;html=1;" vertex="1" parent="1">
          <mxGeometry x="620" y="1050" width="80" height="40" as="geometry" />
        </mxCell>
        <mxCell id="8y2OHgFhRxUhLRQ5Q3VP-134" value="MariaDB&lt;br&gt;회원 저장소" style="rounded=0;whiteSpace=wrap;html=1;" vertex="1" parent="1">
          <mxGeometry x="620" y="1130" width="90" height="40" as="geometry" />
        </mxCell>
        <mxCell id="8y2OHgFhRxUhLRQ5Q3VP-141" style="edgeStyle=orthogonalEdgeStyle;rounded=0;orthogonalLoop=1;jettySize=auto;html=1;" edge="1" source="8y2OHgFhRxUhLRQ5Q3VP-142" target="8y2OHgFhRxUhLRQ5Q3VP-145" parent="1">
          <mxGeometry relative="1" as="geometry">
            <mxPoint x="319.9999999999999" y="1530" as="targetPoint" />
          </mxGeometry>
        </mxCell>
        <mxCell id="8y2OHgFhRxUhLRQ5Q3VP-142" value="클라이언트" style="rounded=0;whiteSpace=wrap;html=1;" vertex="1" parent="1">
          <mxGeometry x="40" y="1500" width="120" height="60" as="geometry" />
        </mxCell>
        <mxCell id="8y2OHgFhRxUhLRQ5Q3VP-143" value="" style="edgeStyle=orthogonalEdgeStyle;rounded=0;orthogonalLoop=1;jettySize=auto;html=1;" edge="1" source="8y2OHgFhRxUhLRQ5Q3VP-145" target="8y2OHgFhRxUhLRQ5Q3VP-147" parent="1">
          <mxGeometry relative="1" as="geometry">
            <Array as="points">
              <mxPoint x="450" y="1530" />
            </Array>
          </mxGeometry>
        </mxCell>
        <mxCell id="8y2OHgFhRxUhLRQ5Q3VP-144" style="edgeStyle=orthogonalEdgeStyle;rounded=0;orthogonalLoop=1;jettySize=auto;html=1;" edge="1" source="8y2OHgFhRxUhLRQ5Q3VP-145" parent="1">
          <mxGeometry relative="1" as="geometry">
            <mxPoint x="450" y="1480" as="targetPoint" />
            <Array as="points">
              <mxPoint x="450" y="1530" />
            </Array>
          </mxGeometry>
        </mxCell>
        <mxCell id="8y2OHgFhRxUhLRQ5Q3VP-145" value="하트 서비스&lt;br&gt;1. 하트 보내기&lt;br&gt;2. 하트 조회&lt;br&gt;3. 하트 수락" style="rounded=0;whiteSpace=wrap;html=1;" vertex="1" parent="1">
          <mxGeometry x="239.9999999999999" y="1500" width="120" height="60" as="geometry" />
        </mxCell>
        <mxCell id="8y2OHgFhRxUhLRQ5Q3VP-146" style="edgeStyle=orthogonalEdgeStyle;rounded=0;orthogonalLoop=1;jettySize=auto;html=1;entryX=0;entryY=0.5;entryDx=0;entryDy=0;" edge="1" source="8y2OHgFhRxUhLRQ5Q3VP-147" target="8y2OHgFhRxUhLRQ5Q3VP-149" parent="1">
          <mxGeometry relative="1" as="geometry">
            <mxPoint x="560" y="1590" as="targetPoint" />
          </mxGeometry>
        </mxCell>
        <mxCell id="8y2OHgFhRxUhLRQ5Q3VP-147" value="하트 수락 정책" style="rounded=0;whiteSpace=wrap;html=1;" vertex="1" parent="1">
          <mxGeometry x="400" y="1575" width="95" height="40" as="geometry" />
        </mxCell>
        <mxCell id="8y2OHgFhRxUhLRQ5Q3VP-148" value="하트 저장소" style="rounded=0;whiteSpace=wrap;html=1;" vertex="1" parent="1">
          <mxGeometry x="400" y="1440" width="95" height="40" as="geometry" />
        </mxCell>
        <mxCell id="8y2OHgFhRxUhLRQ5Q3VP-149" value="채팅방 생성&lt;br&gt;정책" style="rounded=0;whiteSpace=wrap;html=1;" vertex="1" parent="1">
          <mxGeometry x="535" y="1575" width="85" height="40" as="geometry" />
        </mxCell>
        <mxCell id="8y2OHgFhRxUhLRQ5Q3VP-150" style="edgeStyle=orthogonalEdgeStyle;rounded=0;orthogonalLoop=1;jettySize=auto;html=1;entryX=0;entryY=0.5;entryDx=0;entryDy=0;" edge="1" target="8y2OHgFhRxUhLRQ5Q3VP-153" parent="1">
          <mxGeometry relative="1" as="geometry">
            <mxPoint x="495" y="1460" as="sourcePoint" />
          </mxGeometry>
        </mxCell>
        <mxCell id="8y2OHgFhRxUhLRQ5Q3VP-151" style="edgeStyle=orthogonalEdgeStyle;rounded=0;orthogonalLoop=1;jettySize=auto;html=1;entryX=0;entryY=0.5;entryDx=0;entryDy=0;" edge="1" target="8y2OHgFhRxUhLRQ5Q3VP-152" parent="1">
          <mxGeometry relative="1" as="geometry">
            <mxPoint x="495" y="1460" as="sourcePoint" />
          </mxGeometry>
        </mxCell>
        <mxCell id="8y2OHgFhRxUhLRQ5Q3VP-152" value="MariaDB&lt;br&gt;하트 저장소" style="rounded=0;whiteSpace=wrap;html=1;" vertex="1" parent="1">
          <mxGeometry x="535" y="1480" width="90" height="40" as="geometry" />
        </mxCell>
        <mxCell id="8y2OHgFhRxUhLRQ5Q3VP-153" value="메모리&lt;br&gt;하트 저장소" style="rounded=0;whiteSpace=wrap;html=1;" vertex="1" parent="1">
          <mxGeometry x="535" y="1400" width="80" height="40" as="geometry" />
        </mxCell>
        <mxCell id="8y2OHgFhRxUhLRQ5Q3VP-154" style="edgeStyle=orthogonalEdgeStyle;rounded=0;orthogonalLoop=1;jettySize=auto;html=1;" edge="1" source="8y2OHgFhRxUhLRQ5Q3VP-155" target="8y2OHgFhRxUhLRQ5Q3VP-158" parent="1">
          <mxGeometry relative="1" as="geometry">
            <mxPoint x="319.9999999999999" y="1730" as="targetPoint" />
          </mxGeometry>
        </mxCell>
        <mxCell id="8y2OHgFhRxUhLRQ5Q3VP-155" value="클라이언트" style="rounded=0;whiteSpace=wrap;html=1;" vertex="1" parent="1">
          <mxGeometry x="40" y="1700" width="120" height="60" as="geometry" />
        </mxCell>
        <mxCell id="8y2OHgFhRxUhLRQ5Q3VP-167" style="edgeStyle=orthogonalEdgeStyle;rounded=0;orthogonalLoop=1;jettySize=auto;html=1;exitX=1;exitY=0.5;exitDx=0;exitDy=0;entryX=0;entryY=0.5;entryDx=0;entryDy=0;" edge="1" parent="1" source="8y2OHgFhRxUhLRQ5Q3VP-158" target="8y2OHgFhRxUhLRQ5Q3VP-161">
          <mxGeometry relative="1" as="geometry" />
        </mxCell>
        <mxCell id="8y2OHgFhRxUhLRQ5Q3VP-158" value="마이페이지 서비스&lt;br&gt;1. 닉네임 변경&lt;br&gt;2. pw 변경&lt;br&gt;3. 선호도 변경" style="rounded=0;whiteSpace=wrap;html=1;" vertex="1" parent="1">
          <mxGeometry x="239.9999999999999" y="1700" width="120" height="60" as="geometry" />
        </mxCell>
        <mxCell id="8y2OHgFhRxUhLRQ5Q3VP-161" value="회원 저장소" style="rounded=0;whiteSpace=wrap;html=1;" vertex="1" parent="1">
          <mxGeometry x="400" y="1710" width="95" height="40" as="geometry" />
        </mxCell>
        <mxCell id="8y2OHgFhRxUhLRQ5Q3VP-163" style="edgeStyle=orthogonalEdgeStyle;rounded=0;orthogonalLoop=1;jettySize=auto;html=1;entryX=0;entryY=0.5;entryDx=0;entryDy=0;" edge="1" target="8y2OHgFhRxUhLRQ5Q3VP-166" parent="1">
          <mxGeometry relative="1" as="geometry">
            <mxPoint x="495" y="1730" as="sourcePoint" />
          </mxGeometry>
        </mxCell>
        <mxCell id="8y2OHgFhRxUhLRQ5Q3VP-164" style="edgeStyle=orthogonalEdgeStyle;rounded=0;orthogonalLoop=1;jettySize=auto;html=1;entryX=0;entryY=0.5;entryDx=0;entryDy=0;" edge="1" target="8y2OHgFhRxUhLRQ5Q3VP-165" parent="1">
          <mxGeometry relative="1" as="geometry">
            <mxPoint x="495" y="1730" as="sourcePoint" />
          </mxGeometry>
        </mxCell>
        <mxCell id="8y2OHgFhRxUhLRQ5Q3VP-165" value="MariaDB&lt;br&gt;회원 저장소" style="rounded=0;whiteSpace=wrap;html=1;" vertex="1" parent="1">
          <mxGeometry x="535" y="1750" width="90" height="40" as="geometry" />
        </mxCell>
        <mxCell id="8y2OHgFhRxUhLRQ5Q3VP-166" value="메모리&lt;br&gt;회원 저장소" style="rounded=0;whiteSpace=wrap;html=1;" vertex="1" parent="1">
          <mxGeometry x="535" y="1670" width="80" height="40" as="geometry" />
        </mxCell>
        <mxCell id="8y2OHgFhRxUhLRQ5Q3VP-177" style="edgeStyle=orthogonalEdgeStyle;rounded=0;orthogonalLoop=1;jettySize=auto;html=1;" edge="1" source="8y2OHgFhRxUhLRQ5Q3VP-178" target="8y2OHgFhRxUhLRQ5Q3VP-180" parent="1">
          <mxGeometry relative="1" as="geometry">
            <mxPoint x="319.9999999999999" y="2010" as="targetPoint" />
          </mxGeometry>
        </mxCell>
        <mxCell id="8y2OHgFhRxUhLRQ5Q3VP-178" value="클라이언트" style="rounded=0;whiteSpace=wrap;html=1;" vertex="1" parent="1">
          <mxGeometry x="40" y="1980" width="120" height="60" as="geometry" />
        </mxCell>
        <mxCell id="8y2OHgFhRxUhLRQ5Q3VP-179" style="edgeStyle=orthogonalEdgeStyle;rounded=0;orthogonalLoop=1;jettySize=auto;html=1;exitX=1;exitY=0.5;exitDx=0;exitDy=0;entryX=0;entryY=0.5;entryDx=0;entryDy=0;" edge="1" source="8y2OHgFhRxUhLRQ5Q3VP-180" target="8y2OHgFhRxUhLRQ5Q3VP-181" parent="1">
          <mxGeometry relative="1" as="geometry" />
        </mxCell>
        <mxCell id="8y2OHgFhRxUhLRQ5Q3VP-201" style="edgeStyle=orthogonalEdgeStyle;rounded=0;orthogonalLoop=1;jettySize=auto;html=1;exitX=1;exitY=0.5;exitDx=0;exitDy=0;entryX=0;entryY=0.5;entryDx=0;entryDy=0;" edge="1" parent="1" source="8y2OHgFhRxUhLRQ5Q3VP-180" target="8y2OHgFhRxUhLRQ5Q3VP-196">
          <mxGeometry relative="1" as="geometry" />
        </mxCell>
        <mxCell id="8y2OHgFhRxUhLRQ5Q3VP-203" style="edgeStyle=orthogonalEdgeStyle;rounded=0;orthogonalLoop=1;jettySize=auto;html=1;exitX=1;exitY=0.5;exitDx=0;exitDy=0;entryX=0;entryY=0.5;entryDx=0;entryDy=0;" edge="1" parent="1" source="8y2OHgFhRxUhLRQ5Q3VP-180" target="8y2OHgFhRxUhLRQ5Q3VP-202">
          <mxGeometry relative="1" as="geometry" />
        </mxCell>
        <mxCell id="8y2OHgFhRxUhLRQ5Q3VP-180" value="결제 서비스&lt;br&gt;1.&amp;nbsp;리매치권 구매&lt;br&gt;2. 포인트 충전" style="rounded=0;whiteSpace=wrap;html=1;" vertex="1" parent="1">
          <mxGeometry x="239.9999999999999" y="1980" width="120" height="60" as="geometry" />
        </mxCell>
        <mxCell id="8y2OHgFhRxUhLRQ5Q3VP-181" value="회원 저장소" style="rounded=0;whiteSpace=wrap;html=1;" vertex="1" parent="1">
          <mxGeometry x="400" y="1890" width="95" height="40" as="geometry" />
        </mxCell>
        <mxCell id="8y2OHgFhRxUhLRQ5Q3VP-182" style="edgeStyle=orthogonalEdgeStyle;rounded=0;orthogonalLoop=1;jettySize=auto;html=1;entryX=0;entryY=0.5;entryDx=0;entryDy=0;" edge="1" target="8y2OHgFhRxUhLRQ5Q3VP-185" parent="1">
          <mxGeometry relative="1" as="geometry">
            <mxPoint x="495" y="1910" as="sourcePoint" />
          </mxGeometry>
        </mxCell>
        <mxCell id="8y2OHgFhRxUhLRQ5Q3VP-183" style="edgeStyle=orthogonalEdgeStyle;rounded=0;orthogonalLoop=1;jettySize=auto;html=1;entryX=0;entryY=0.5;entryDx=0;entryDy=0;" edge="1" target="8y2OHgFhRxUhLRQ5Q3VP-184" parent="1">
          <mxGeometry relative="1" as="geometry">
            <mxPoint x="495" y="1910" as="sourcePoint" />
          </mxGeometry>
        </mxCell>
        <mxCell id="8y2OHgFhRxUhLRQ5Q3VP-184" value="MariaDB&lt;br&gt;회원 저장소" style="rounded=0;whiteSpace=wrap;html=1;" vertex="1" parent="1">
          <mxGeometry x="535" y="1930" width="90" height="40" as="geometry" />
        </mxCell>
        <mxCell id="8y2OHgFhRxUhLRQ5Q3VP-185" value="메모리&lt;br&gt;회원 저장소" style="rounded=0;whiteSpace=wrap;html=1;" vertex="1" parent="1">
          <mxGeometry x="535" y="1850" width="80" height="40" as="geometry" />
        </mxCell>
        <mxCell id="8y2OHgFhRxUhLRQ5Q3VP-207" style="edgeStyle=orthogonalEdgeStyle;rounded=0;orthogonalLoop=1;jettySize=auto;html=1;exitX=1;exitY=0.5;exitDx=0;exitDy=0;entryX=0;entryY=0.5;entryDx=0;entryDy=0;" edge="1" parent="1" source="8y2OHgFhRxUhLRQ5Q3VP-196" target="8y2OHgFhRxUhLRQ5Q3VP-206">
          <mxGeometry relative="1" as="geometry" />
        </mxCell>
        <mxCell id="8y2OHgFhRxUhLRQ5Q3VP-196" value="포인트 충전 정책" style="rounded=0;whiteSpace=wrap;html=1;" vertex="1" parent="1">
          <mxGeometry x="400" y="1990" width="95" height="40" as="geometry" />
        </mxCell>
        <mxCell id="8y2OHgFhRxUhLRQ5Q3VP-205" style="edgeStyle=orthogonalEdgeStyle;rounded=0;orthogonalLoop=1;jettySize=auto;html=1;exitX=1;exitY=0.5;exitDx=0;exitDy=0;entryX=0;entryY=0.5;entryDx=0;entryDy=0;" edge="1" parent="1" source="8y2OHgFhRxUhLRQ5Q3VP-202" target="8y2OHgFhRxUhLRQ5Q3VP-204">
          <mxGeometry relative="1" as="geometry" />
        </mxCell>
        <mxCell id="8y2OHgFhRxUhLRQ5Q3VP-202" value="구매 정책" style="rounded=0;whiteSpace=wrap;html=1;" vertex="1" parent="1">
          <mxGeometry x="400" y="2070" width="95" height="40" as="geometry" />
        </mxCell>
        <mxCell id="8y2OHgFhRxUhLRQ5Q3VP-204" value="기본(리매치권)&lt;br&gt;구매" style="rounded=0;whiteSpace=wrap;html=1;" vertex="1" parent="1">
          <mxGeometry x="535" y="2070" width="90" height="40" as="geometry" />
        </mxCell>
        <mxCell id="8y2OHgFhRxUhLRQ5Q3VP-206" value="출석 충전 정책&lt;br&gt;(예시)" style="rounded=0;whiteSpace=wrap;html=1;" vertex="1" parent="1">
          <mxGeometry x="535" y="1990" width="90" height="40" as="geometry" />
        </mxCell>
      </root>
    </mxGraphModel>
  </diagram>
</mxfile>
